<svg width="250" height="276" viewBox="0 0 250 276" fill="none" xmlns="http://www.w3.org/2000/svg">
<g clip-path="url(#clip0_4_156)">
<path d="M256.394 -8.28738V281.16H227.83L166.894 136.436L227.83 -8.28738H256.394Z" fill="#1A472A"/>
<path d="M227.83 -8.28738V281.16L125 250.691L22.1701 281.16H-6.39368V-8.28738H227.83Z" fill="#2A623D"/>
<path d="M126.036 178.338L204.979 281.16H227.83C227.83 224.717 182.356 178.893 126.036 178.338Z" fill="#42C8C6"/>
<path d="M125 37.4149V155.479C157.601 155.479 184.032 129.048 184.032 96.4465C184.032 63.8454 157.601 37.4149 125 37.4149Z" fill="#FFC1A6"/>
<path d="M126.036 178.338C169.728 179.054 204.979 224.809 204.979 281.16H22.1701C22.1701 224.367 68.2074 178.33 125 178.33C125.343 178.33 125.693 178.33 126.036 178.338Z" fill="#81E3E2"/>
<path d="M125 37.4149C144.979 37.4149 161.181 63.8461 161.181 96.4472C161.181 129.048 144.979 155.479 125 155.479C92.3989 155.479 65.9678 129.048 65.9678 96.4465C65.9678 63.8454 92.3989 37.4149 125 37.4149Z" fill="#FFDBCC"/>
<path d="M125 161.191C160.7 161.191 189.745 132.147 189.745 96.4465C189.745 60.7458 160.7 31.7023 125 31.7023C89.3 31.7023 60.2551 60.7465 60.2551 96.4472C60.2551 132.148 89.3 161.191 125 161.191ZM125 43.1276C154.4 43.1276 178.319 67.0464 178.319 96.4465C178.319 125.847 154.4 149.766 125 149.766C95.5999 149.766 71.6811 125.847 71.6811 96.4472C71.6811 67.0471 95.5999 43.1276 125 43.1276Z" fill="black"/>
<path d="M125 119.189C132.484 119.189 139.224 114.641 141.773 107.872C142.884 104.92 141.391 101.625 138.439 100.513C135.49 99.4035 132.191 100.894 131.08 103.847C130.199 106.19 127.755 107.765 125.001 107.765C122.247 107.765 119.804 106.191 118.923 103.848C117.812 100.896 114.518 99.4049 111.565 100.514C108.612 101.625 107.118 104.92 108.23 107.872C110.775 114.641 117.516 119.189 125 119.189Z" fill="black"/>
<path d="M23.4546 263.879C23.8804 263.974 24.3055 264.022 24.7244 264.022C27.3331 264.022 29.6888 262.224 30.2908 259.572C40.3813 215.101 79.3277 184.043 125 184.043C170.672 184.043 209.618 215.1 219.71 259.571C220.408 262.647 223.469 264.569 226.546 263.877C229.623 263.179 231.55 260.118 230.853 257.041C225.495 233.434 212.118 212.005 193.186 196.702C173.97 181.171 149.755 172.617 124.999 172.617C100.243 172.617 76.0288 181.171 56.8122 196.703C37.8802 212.006 24.5034 233.436 19.146 257.043C18.4496 260.12 20.3773 263.18 23.4546 263.879Z" fill="black"/>
<path d="M256.394 -14H-6.39371C-9.54928 -14 -12.1063 -11.443 -12.1063 -8.28738V281.159C-12.1063 284.315 -9.54928 286.872 -6.39371 286.872H256.394C259.549 286.872 262.106 284.315 262.106 281.159V-8.28738C262.106 -11.443 259.549 -14 256.394 -14ZM250.681 275.446H-0.681091V-2.57477H250.68V275.446H250.681Z" fill="black"/>
</g>
<defs>
<clipPath id="clip0_4_156">
<rect width="250" height="276" fill="white"/>
</clipPath>
</defs>
</svg>
