<svg width="341" height="341" viewBox="0 0 341 341" fill="none" xmlns="http://www.w3.org/2000/svg">
<g clip-path="url(#clip0_4_78)">
<path d="M170.5 341C264.665 341 341 264.665 341 170.5C341 76.3354 264.665 0 170.5 0C76.3354 0 0 76.3354 0 170.5C0 264.665 76.3354 341 170.5 341Z" fill="#2A623D"/>
<path d="M50.6172 202.469V85.4924C50.6172 82.1624 52.7618 79.9219 55.9453 79.9219H274.398C277.585 79.9219 279.727 82.1597 279.727 85.4924V202.469H50.6172Z" fill="#1E2C33"/>
<path d="M50.6172 202.469V223.781C50.6172 226.965 52.7618 229.109 55.9453 229.109H274.398C277.585 229.109 279.727 226.965 279.727 223.781V202.469H50.6172Z" fill="#F5F5F5"/>
<path d="M269.07 93.2422H61.2734V191.812H269.07V93.2422Z" fill="#5D5D5D"/>
<path d="M194.477 229.109H135.867V253.086H194.477V229.109Z" fill="#E6E6E6"/>
<path d="M213.125 258.414C213.125 255.484 210.727 253.086 207.797 253.086H122.547C119.616 253.086 117.219 255.484 117.219 258.414C117.219 261.345 119.616 263.742 122.547 263.742H207.797C210.727 263.742 213.125 261.345 213.125 258.414Z" fill="#F5F5F5"/>
<path d="M165.172 221.117C168.115 221.117 170.5 218.732 170.5 215.789C170.5 212.846 168.115 210.461 165.172 210.461C162.229 210.461 159.844 212.846 159.844 215.789C159.844 218.732 162.229 221.117 165.172 221.117Z" fill="#1E2C33"/>
<path d="M290.383 258.414C290.383 261.078 287.719 263.742 285.055 263.742H231.773C229.109 263.742 226.445 262.144 226.445 258.68V165.172C226.445 162.508 229.109 159.844 231.773 159.844H285.055C287.719 159.844 290.383 162.508 290.383 165.172V258.414Z" fill="#E6E6E6"/>
<path d="M287.719 170.5H229.109V247.758H287.719V170.5Z" fill="#1E2C33"/>
<path d="M285.055 173.164H231.773V245.094H285.055V173.164Z" fill="#5D5D5D"/>
<path d="M258.414 163.84C259.15 163.84 259.746 163.243 259.746 162.508C259.746 161.772 259.15 161.176 258.414 161.176C257.678 161.176 257.082 161.772 257.082 162.508C257.082 163.243 257.678 163.84 258.414 163.84Z" fill="#5D5D5D"/>
<path d="M265.287 167.836H251.607C250.952 167.836 250.422 167.165 250.422 166.504C250.422 165.849 250.952 165.172 251.607 165.172H265.287C265.945 165.172 266.473 165.849 266.473 166.504C266.473 167.165 265.945 167.836 265.287 167.836Z" fill="#5D5D5D"/>
<path d="M258.411 250.422C255.473 250.422 253.089 252.809 253.089 255.75C253.089 258.686 255.476 261.078 258.411 261.078C261.353 261.078 263.745 258.686 263.745 255.75C263.745 252.809 261.355 250.422 258.411 250.422Z" fill="#5D5D5D"/>
<path d="M226.445 178.492C224.972 178.492 223.781 177.301 223.781 175.828V170.5C223.781 169.027 224.972 167.836 226.445 167.836C227.919 167.836 229.109 169.027 229.109 170.5V175.828C229.109 177.301 227.919 178.492 226.445 178.492Z" fill="#E6E6E6"/>
<path d="M226.445 191.812C224.972 191.812 223.781 190.622 223.781 189.148V186.484C223.781 185.011 224.972 183.82 226.445 183.82C227.919 183.82 229.109 185.011 229.109 186.484V189.148C229.109 190.622 227.919 191.812 226.445 191.812Z" fill="#E6E6E6"/>
<path d="M226.445 202.469C224.972 202.469 223.781 201.278 223.781 199.805V197.141C223.781 195.667 224.972 194.477 226.445 194.477C227.919 194.477 229.109 195.667 229.109 197.141V199.805C229.109 201.278 227.919 202.469 226.445 202.469Z" fill="#E6E6E6"/>
<path d="M279.727 162.508H277.062C275.589 162.508 274.398 161.317 274.398 159.844C274.398 158.371 275.589 157.18 277.062 157.18H279.727C281.2 157.18 282.391 158.371 282.391 159.844C282.391 161.317 281.2 162.508 279.727 162.508Z" fill="#E6E6E6"/>
</g>
<defs>
<clipPath id="clip0_4_78">
<rect width="341" height="341" fill="white"/>
</clipPath>
</defs>
</svg>
